<svg data-v-423bf9ae="" xmlns="http://www.w3.org/2000/svg" viewBox="0 0 440 90" class="iconLeft"><!----><!----><!----><g data-v-423bf9ae="" id="ee510eea-75dd-48c4-93b2-fb20a2249c19" fill="white" transform="matrix(6.472491589765748,0,0,6.472491589765748,108.12297320556965,-7.588995471590373)"><path d="M5.60 5.42L5.63 6.41L5.63 6.41Q6.45 4.65 7.46 4.66L7.46 4.66L7.46 4.66Q8.47 4.67 8.36 6.88L8.36 6.88L8.36 6.88Q8.34 10.78 8.39 11.50L8.39 11.50L8.39 11.50Q8.44 12.22 9.02 12.74L9.02 12.74L10.12 11.56L10.05 11.33L10.05 11.33Q9.36 12.04 9.37 10.04L9.37 10.04L9.39 6.15L9.39 6.15Q9.42 4.08 8.57 3.68L8.57 3.68L8.57 3.68Q7.72 3.29 7.08 3.81L7.08 3.81L7.08 3.81Q6.45 4.33 6.17 4.66L6.17 4.66L6.17 4.66Q5.89 4.98 5.60 5.42L5.60 5.42ZM1.59 3.67L0.29 4.94L0.37 5.17L0.37 5.17Q1.00 4.62 1.01 6.49L1.01 6.49L1.01 6.49Q0.94 10.86 1.03 11.52L1.03 11.52L1.03 11.52Q1.12 12.19 1.70 12.71L1.70 12.71L2.76 11.67L2.76 11.42L2.76 11.42Q2.19 11.54 2.11 10.31L2.11 10.31L2.11 10.31Q2.03 9.07 2.11 6.28L2.11 6.28L2.11 6.28Q2.83 4.65 3.84 4.66L3.84 4.66L3.84 4.66Q4.85 4.67 4.76 6.61L4.76 6.61L4.76 6.61Q4.72 10.78 4.76 11.50L4.76 11.50L4.76 11.50Q4.81 12.22 5.39 12.74L5.39 12.74L6.50 11.56L6.43 11.33L6.43 11.33Q5.74 12.04 5.77 8.80L5.77 8.80L5.77 8.80Q5.80 5.56 5.67 4.88L5.67 4.88L5.67 4.88Q5.54 4.20 4.82 3.74L4.82 3.74L4.82 3.74Q4.09 3.29 3.46 3.81L3.46 3.81L3.46 3.81Q2.82 4.33 2.54 4.66L2.54 4.66L2.54 4.66Q2.26 4.98 2.08 5.29L2.08 5.29L2.08 5.29Q2.14 4.05 1.59 3.67L1.59 3.67ZM13.34 6.45L13.34 6.45Q12.19 7.21 11.71 7.77L11.71 7.77L11.71 7.77Q11.24 8.33 11.05 8.89L11.05 8.89L11.05 8.89Q10.86 9.46 10.98 10.32L10.98 10.32L10.98 10.32Q11.11 11.17 11.98 11.96L11.98 11.96L11.98 11.96Q12.84 12.75 13.36 12.75L13.36 12.75L13.36 12.75Q13.88 12.76 15.00 11.73L15.00 11.73L15.00 11.73Q15.43 11.34 15.82 10.82L15.82 10.82L15.82 10.82Q16.21 10.31 16.33 9.74L16.33 9.74L16.33 9.74Q16.44 9.17 16.27 8.50L16.27 8.50L16.27 8.50Q16.09 7.83 15.29 7.04L15.29 7.04L15.29 7.04Q14.48 6.25 13.34 6.45L13.34 6.45ZM12.97 7.26L12.97 7.26L12.97 7.26Q13.76 7.08 14.70 8.24L14.70 8.24L14.70 8.24Q15.63 9.41 15.44 10.23L15.44 10.23L15.44 10.23Q15.24 11.06 14.58 11.56L14.58 11.56L14.58 11.56Q13.92 12.05 13.19 11.45L13.19 11.45L13.19 11.45Q12.45 10.84 12.01 10.15L12.01 10.15L12.01 10.15Q11.57 9.46 11.88 8.45L11.88 8.45L11.88 8.45Q12.19 7.43 12.97 7.26ZM19.71 7.12L19.71 7.12L19.87 7.24L19.87 7.24Q20.37 6.55 21.23 7.48L21.23 7.48L21.23 7.48Q22.09 8.40 21.81 9.44L21.81 9.44L21.81 9.44Q21.53 10.48 20.61 11.57L20.61 11.57L18.19 6.67L18.19 6.67Q17.94 6.38 17.55 6.71L17.55 6.71L16.69 7.37L16.81 7.57L16.81 7.57Q17.09 7.11 17.68 8.15L17.68 8.15L19.93 12.69L20.21 12.69L20.82 11.91L20.82 11.91Q21.77 10.77 22.47 9.74L22.47 9.74L22.47 9.74Q23.17 8.71 22.69 7.57L22.69 7.57L22.69 7.57Q22.20 6.43 21.32 6.17L21.32 6.17L21.32 6.17Q20.43 5.91 19.71 7.12ZM24.42 3.68L23.69 4.38L23.69 4.38Q24.24 4.68 24.36 5.35L24.36 5.35L24.36 5.35Q25.37 4.81 25.15 4.32L25.15 4.32L25.15 4.32Q24.92 3.83 24.42 3.68L24.42 3.68ZM23.85 7.41L23.85 7.41Q24.18 7.39 24.10 9.19L24.10 9.19L24.10 9.19Q24.06 11.33 24.11 11.84L24.11 11.84L24.11 11.84Q24.16 12.35 24.72 12.68L24.72 12.68L25.52 11.84L25.52 11.84Q25.07 11.73 25.13 10.31L25.13 10.31L25.13 10.31Q25.15 7.65 25.13 7.25L25.13 7.25L25.13 7.25Q25.12 6.85 24.76 6.45L24.76 6.45L23.74 7.22L23.85 7.41ZM29.57 6.60L29.57 6.60L29.57 6.60Q28.50 6.43 27.57 7.26L27.57 7.26L27.57 7.26Q26.64 8.09 26.38 9.20L26.38 9.20L26.38 9.20Q26.12 10.31 26.54 11.26L26.54 11.26L26.54 11.26Q26.96 12.22 28.10 12.62L28.10 12.62L28.10 12.62Q29.03 12.93 30.04 12.18L30.04 12.18L30.04 12.18Q31.04 11.43 31.15 10.84L31.15 10.84L30.95 10.68L30.95 10.68Q30.13 11.85 29.35 11.81L29.35 11.81L29.35 11.81Q28.57 11.76 28.18 11.46L28.18 11.46L28.18 11.46Q27.79 11.15 27.58 10.80L27.58 10.80L29.48 9.54L29.48 9.54Q30.92 8.65 30.78 7.70L30.78 7.70L30.78 7.70Q30.63 6.76 29.57 6.60ZM27.13 8.75L27.13 8.75L27.13 8.75Q27.14 8.12 27.64 7.58L27.64 7.58L27.64 7.58Q28.15 7.04 28.75 7.19L28.75 7.19L28.75 7.19Q29.35 7.34 29.58 8.00L29.58 8.00L29.58 8.00Q29.82 8.67 29.52 9.02L29.52 9.02L29.52 9.02Q29.23 9.37 27.41 10.40L27.41 10.40L27.41 10.40Q27.25 10.04 27.19 9.71L27.19 9.71L27.19 9.71Q27.13 9.37 27.13 8.75ZM32.61 3.61L31.67 4.27L31.67 4.27Q31.88 4.53 31.89 5.31L31.89 5.31L31.89 5.31Q31.81 11.44 31.93 11.91L31.93 11.91L31.93 11.91Q32.05 12.39 32.63 12.67L32.63 12.67L33.74 11.79L33.67 11.61L33.67 11.61Q33.15 11.96 33.07 11.31L33.07 11.31L33.07 11.31Q32.98 10.66 33.04 7.85L33.04 7.85L36.16 7.75L36.21 6.91L33.56 7.01L33.04 7.47L33.00 4.76L33.00 4.76Q32.97 3.86 32.61 3.61L32.61 3.61ZM36.78 3.61L35.84 4.27L35.84 4.27Q36.05 4.53 36.06 5.31L36.06 5.31L36.06 5.31Q35.98 11.44 36.10 11.91L36.10 11.91L36.10 11.91Q36.22 12.39 36.80 12.67L36.80 12.67L37.91 11.79L37.84 11.61L37.84 11.61Q37.32 11.96 37.24 11.31L37.24 11.31L37.24 11.31Q37.15 10.66 37.17 4.76L37.17 4.76L37.17 4.76Q37.14 3.86 36.78 3.61L36.78 3.61ZM43.56 12.76L44.93 11.83L44.84 11.71L44.84 11.71Q44.21 12.12 44.23 10.52L44.23 10.52L44.23 10.52Q44.41 7.62 44.34 7.19L44.34 7.19L44.34 7.19Q44.28 6.76 43.70 6.37L43.70 6.37L42.62 7.08L42.67 7.21L42.67 7.21Q43.22 6.89 43.22 7.90L43.22 7.90L43.22 7.90Q43.22 8.91 43.15 10.80L43.15 10.80L43.15 10.80Q41.84 12.24 40.88 11.95L40.88 11.95L40.88 11.95Q39.92 11.66 40.06 9.75L40.06 9.75L40.06 9.75Q40.09 7.70 40.04 7.22L40.04 7.22L40.04 7.22Q40.00 6.73 39.40 6.36L39.40 6.36L38.36 7.10L38.45 7.25L38.45 7.25Q38.93 7.01 39.00 7.94L39.00 7.94L39.00 7.94Q39.07 8.88 39.00 10.32L39.00 10.32L39.00 10.32Q38.95 11.20 39.22 11.78L39.22 11.78L39.22 11.78Q39.48 12.37 40.16 12.61L40.16 12.61L40.16 12.61Q40.84 12.84 41.65 12.50L41.65 12.50L41.65 12.50Q42.46 12.15 43.12 11.46L43.12 11.46L43.12 11.46Q43.03 12.41 43.56 12.76L43.56 12.76ZM46.36 3.49L45.41 4.20L45.41 4.20Q45.84 4.68 45.74 7.22L45.74 7.22L45.74 7.22Q45.64 9.76 45.68 10.65L45.68 10.65L45.68 10.65Q45.73 11.55 46.89 12.25L46.89 12.25L46.89 12.25Q48.06 12.96 48.92 12.54L48.92 12.54L48.92 12.54Q49.79 12.13 50.40 11.45L50.40 11.45L50.40 11.45Q51.02 10.77 51.18 9.68L51.18 9.68L51.18 9.68Q51.35 8.60 50.75 7.72L50.75 7.72L50.75 7.72Q50.14 6.84 49.21 6.66L49.21 6.66L49.21 6.66Q48.28 6.48 46.73 7.49L46.73 7.49L46.73 7.49Q46.89 4.43 46.69 3.98L46.69 3.98L46.69 3.98Q46.49 3.52 46.36 3.49L46.36 3.49ZM47.78 7.42L47.78 7.42L47.78 7.42Q48.54 7.31 49.24 7.86L49.24 7.86L49.24 7.86Q49.94 8.40 50.10 9.35L50.10 9.35L50.10 9.35Q50.26 10.29 49.96 11.10L49.96 11.10L49.96 11.10Q49.66 11.91 48.98 11.91L48.98 11.91L48.98 11.91Q48.30 11.91 47.88 11.72L47.88 11.72L47.88 11.72Q47.46 11.53 47.03 11.05L47.03 11.05L47.03 11.05Q46.59 10.56 46.76 8.14L46.76 8.14L46.76 8.14Q47.02 7.52 47.78 7.42Z"></path></g><!----><g data-v-423bf9ae="" id="8611a272-452e-4d8e-a1c2-54eab61857a4" transform="matrix(2.8125,0,0,2.8125,0,0)" stroke="none" fill="white"><path d="M0 32h32V0H0v32zm19.377-19.492l6.936-6.936v20.855h-6.936V12.508zM5.688 5.572l6.936 6.936v13.919H5.688V5.572z"></path></g><!----></svg>